<svg width="48" height="49" viewBox="0 0 48 49" fill="none" xmlns="http://www.w3.org/2000/svg">
<path d="M15.6 4.2627H32.4C38.8 4.2627 44 9.4627 44 15.8627V32.6627C44 35.7392 42.7779 38.6897 40.6024 40.8651C38.427 43.0406 35.4765 44.2627 32.4 44.2627H15.6C9.2 44.2627 4 39.0627 4 32.6627V15.8627C4 12.7862 5.22214 9.83568 7.39756 7.66026C9.57298 5.48483 12.5235 4.2627 15.6 4.2627ZM15.2 8.2627C13.2904 8.2627 11.4591 9.02127 10.1088 10.3715C8.75857 11.7218 8 13.5531 8 15.4627V33.0627C8 37.0427 11.22 40.2627 15.2 40.2627H32.8C34.7096 40.2627 36.5409 39.5041 37.8912 38.1539C39.2414 36.8036 40 34.9723 40 33.0627V15.4627C40 11.4827 36.78 8.2627 32.8 8.2627H15.2ZM34.5 11.2627C35.163 11.2627 35.7989 11.5261 36.2678 11.9949C36.7366 12.4638 37 13.0997 37 13.7627C37 14.4257 36.7366 15.0616 36.2678 15.5305C35.7989 15.9993 35.163 16.2627 34.5 16.2627C33.837 16.2627 33.2011 15.9993 32.7322 15.5305C32.2634 15.0616 32 14.4257 32 13.7627C32 13.0997 32.2634 12.4638 32.7322 11.9949C33.2011 11.5261 33.837 11.2627 34.5 11.2627ZM24 14.2627C26.6522 14.2627 29.1957 15.3163 31.0711 17.1916C32.9464 19.067 34 21.6105 34 24.2627C34 26.9149 32.9464 29.4584 31.0711 31.3338C29.1957 33.2091 26.6522 34.2627 24 34.2627C21.3478 34.2627 18.8043 33.2091 16.9289 31.3338C15.0536 29.4584 14 26.9149 14 24.2627C14 21.6105 15.0536 19.067 16.9289 17.1916C18.8043 15.3163 21.3478 14.2627 24 14.2627ZM24 18.2627C22.4087 18.2627 20.8826 18.8948 19.7574 20.0201C18.6321 21.1453 18 22.6714 18 24.2627C18 25.854 18.6321 27.3801 19.7574 28.5053C20.8826 29.6306 22.4087 30.2627 24 30.2627C25.5913 30.2627 27.1174 29.6306 28.2426 28.5053C29.3679 27.3801 30 25.854 30 24.2627C30 22.6714 29.3679 21.1453 28.2426 20.0201C27.1174 18.8948 25.5913 18.2627 24 18.2627Z" fill="white"/>
</svg>
